<svg id="Слой_1" data-name="Слой 1" xmlns="http://www.w3.org/2000/svg" viewBox="0 0 800 800"><defs><style>.cls-1{fill:#f8f5f1;}.cls-2{fill:#11052c;}.cls-3{fill:#f43b86;}</style></defs><path class="cls-1" d="M303.29,4.12H496.71A35,35,0,0,1,514.18,8.8l167.51,96.72a34.72,34.72,0,0,1,12.79,12.79L791.2,285.82a35,35,0,0,1,4.68,17.47V496.71a35,35,0,0,1-4.68,17.47L694.48,681.69a34.72,34.72,0,0,1-12.79,12.79L514.18,791.2a35,35,0,0,1-17.47,4.68H303.29a35,35,0,0,1-17.47-4.68L118.31,694.48a34.72,34.72,0,0,1-12.79-12.79L8.8,514.18a35,35,0,0,1-4.68-17.47V303.29A35,35,0,0,1,8.8,285.82l96.72-167.51a34.72,34.72,0,0,1,12.79-12.79L285.82,8.8A35,35,0,0,1,303.29,4.12Z"/><path class="cls-2" d="M308.62,24H491.38a34.92,34.92,0,0,1,17.48,4.68l158.28,91.39a34.87,34.87,0,0,1,12.79,12.79l91.39,158.28A34.92,34.92,0,0,1,776,308.62V491.38a34.92,34.92,0,0,1-4.68,17.48L679.93,667.14a34.87,34.87,0,0,1-12.79,12.79L508.86,771.32A34.92,34.92,0,0,1,491.38,776H308.62a34.92,34.92,0,0,1-17.48-4.68L132.86,679.93a34.87,34.87,0,0,1-12.79-12.79L28.68,508.86A34.92,34.92,0,0,1,24,491.38V308.62a34.92,34.92,0,0,1,4.68-17.48l91.39-158.28a34.87,34.87,0,0,1,12.79-12.79L291.14,28.68A34.92,34.92,0,0,1,308.62,24Z"/><path class="cls-3" d="M280.11,202.66q22.68,0,40.5,8.28t28.86,22.29l20.09,15.55a38.5,38.5,0,0,1,9.4,11.91,103.36,103.36,0,0,1,7.13,16.59,133,133,0,0,1,4.53,17.62,87.32,87.32,0,0,1,1.63,15.54v47.67q0,12.45-16.32,12.44c-5.23,0-8.93-.85-11.1-2.58-2.18,1.73-6.1,2.58-11.76,2.58-5.22,0-9.35-.85-12.4-2.58a5.76,5.76,0,0,1-3.26,1.55,71.1,71.1,0,0,1,11.76,11.88l20.23,15.5a58.45,58.45,0,0,1,17,21.44,61.3,61.3,0,0,1,5.88,26.09v90.41a54.57,54.57,0,0,1-5.84,25.31A60.93,60.93,0,0,1,369.88,580a78.31,78.31,0,0,1-25.28,13.17,105.22,105.22,0,0,1-32.08,4.65H280.75q-16.86,0-28.85-4.91a93.85,93.85,0,0,1-23-13.69l-18.8-15a73,73,0,0,1-28.2-22.73A53.35,53.35,0,0,1,171.2,509V458.38q0-14,17.45-13.95,7.11,0,11.63,2.58a27.22,27.22,0,0,1,12.28-2.58q7.11,0,11.64,2.58a27.17,27.17,0,0,1,12.28-2.58q14.86,0,17.45,8.78l23.27,21.7c0,.35.42.86,1.29,1.55V466.39c0-2.59-.11-5.08-.32-7.5s-.33-4.9-.33-7.49V441.33q-15.51-.51-27.14-5.43a93,93,0,0,1-22-13.21l-19.39-15.53q-17.45-8.81-27.79-23.29a54.8,54.8,0,0,1-10.34-32.62V267.37A52.33,52.33,0,0,1,177.68,242a67.81,67.81,0,0,1,17.5-20.71,83.38,83.38,0,0,1,25.61-13.71,97.71,97.71,0,0,1,31.43-4.92ZM252,212a81.11,81.11,0,0,0-26.82,4.39,78.31,78.31,0,0,0-22.3,11.89,55,55,0,0,0-15.19,17.82,45.53,45.53,0,0,0-5.49,21.7v83.69a46.45,46.45,0,0,0,5.49,22.21,57.71,57.71,0,0,0,15.19,18.09,74.6,74.6,0,0,0,22.3,12.13,80.86,80.86,0,0,0,26.82,4.4h27.79q9.71,0,9.7,7.23V509q0,7.74-9.7,7.75H252q-8.4,0-8.4-7.75V458.38c0-3.44-2.26-5.17-6.77-5.17-4.11,0-6.16,1.73-6.16,5.17V509q0,17.57,21.79,17.56H280q23.69,0,23.7-17.56V415.5q0-18.08-23.78-18.08H252.29q-23.76,0-40.15-13.22t-16.38-32.9V267.37q0-19.17,16.4-32.39t40.22-13.21h27.67q24.45,0,40.52,13t16.09,32.69v68c0,1.39,2.25,2.07,6.77,2.07,5,0,7.45-.68,7.45-2.07V267.75a45.37,45.37,0,0,0-5.55-21.7,57,57,0,0,0-15-17.82,74.11,74.11,0,0,0-22.53-11.89,87.59,87.59,0,0,0-28-4.39Zm0,147.75q-8.44,0-8.45-8.26V267.75q0-7.23,8.4-7.23h27.79q9.71,0,9.7,7.23v67.67c0,1.39,2.36,2.07,7.11,2.07s7.11-.68,7.11-2.07V267.75q0-18.08-23.7-18.08H252.45q-21.8,0-21.79,18.08v83.69q0,18.09,21.85,18.08h27.62q24.4,0,40.46,13.17t16.07,32.81V509q0,18.6-16.09,32t-40.52,13.43H252.38q-23.82,0-40.22-13.18T195.76,509V458.38c0-3.44-2.16-5.17-6.46-5.17s-6.47,1.73-6.47,5.17V509a45,45,0,0,0,5.5,22,55.67,55.67,0,0,0,15.19,17.57,78.11,78.11,0,0,0,22.29,11.88,80.91,80.91,0,0,0,26.83,4.39h27.79q31,0,50.74-15.76t19.71-40V415.5a45.46,45.46,0,0,0-5.53-21.7,57,57,0,0,0-15-17.82A73.53,73.53,0,0,0,308,364.1,87,87,0,0,0,280,359.7Zm-39.17,93.51c-4.52,0-6.77,1.71-6.77,5.13V508.7q0,37,46.28,37H280q46.92,0,46.93-37.09V415.39q0-36.57-47.19-36.57H252q-33,0-33-27.38V267.75q0-26.87,32.74-26.87h27.6q33.38,0,33.38,26.87v67.67c0,1.39,2.48,2.07,7.45,2.07,4.5,0,6.77-.68,6.77-2.07V267.75q0-37.2-46.93-37.2H252.38q-46.29,0-46.28,37.2v83.69q0,37.2,46,37.19h27.46q33.21,0,33.21,26.87V509q0,26.87-33.38,26.86h-27.6Q219,535.87,219,509V458.38C219,454.94,217,453.21,212.87,453.21Z"/><path class="cls-3" d="M409.05,564.53v-5.62a27.5,27.5,0,0,1,1.09-7.7l75.17-258.66H459.46q-8.41,0-12.28-3.11L420,267.75q-11-2.58-11-13.43a13.35,13.35,0,0,1,3.23-9.3,15.35,15.35,0,0,1-3.23-9.82,13.39,13.39,0,0,1,3.23-9.3,15.34,15.34,0,0,1-3.23-9.81q0-14,18.09-14H588.78a20.08,20.08,0,0,1,13.43,5.16l20.44,18.43a14.8,14.8,0,0,1,4.82,9.42l.68,6.25h0a18.76,18.76,0,0,1-.51,8.16L553.18,506.94H581q11.85,0,15.62,6.1a19.66,19.66,0,0,0,4.22,5.11l24.11,19.27c2.59,2.07,3.88,5.16,3.88,9.3q0,6.72-3.88,9.82,3.89,3.09,3.88,9.29,0,6.7-3.88,9.82c2.59,2.06,3.88,5.17,3.88,9.3q0,12.39-15.51,12.4l-154.48-.52-8.74-.29a22.6,22.6,0,0,1-12.3-4.15l-22.6-16A14.5,14.5,0,0,1,409.05,564.53Zm81.25-38.9h0a22,22,0,0,0,4.29.42H581c4.31,0,6.47-1.71,6.47-5.16s-2.16-5.17-6.47-5.17H510.11a6,6,0,0,1-5.79-7.69l82.55-287.89a8,8,0,0,0,.09-4h0a7.41,7.41,0,0,0-2-3.58h0a5,5,0,0,0-3.52-1.46l-154.31-.18c-4.75,0-7.11,1.73-7.11,5.17s2.36,5.16,7.11,5.16H565.43a4.89,4.89,0,0,1,4.69,6.24l-84.27,291a5.45,5.45,0,0,0,.2,3.63h0A5.87,5.87,0,0,0,490.3,525.63Zm-34.22,15.51a11.43,11.43,0,0,0,8.25,3.51H581c4.31,0,6.47-1.63,6.47-4.91s-2.16-4.9-6.47-4.9h-105a5.09,5.09,0,0,1-4.89-6.51L554.7,238.21a7.59,7.59,0,0,0,.25-3h0a5.56,5.56,0,0,0-4.63-4.85h0a30.16,30.16,0,0,0-4.65-.37H427.14c-4.75,0-7.11,1.72-7.11,5.16s2.36,5.16,7.11,5.16H533.71A4.43,4.43,0,0,1,538,246L454.24,533.68a7.64,7.64,0,0,0,1.84,7.46ZM426.5,563.77l154.47.51q6.46,0,6.47-5.16c0-3.44-2.16-5.17-6.47-5.17H443.1a5.2,5.2,0,0,1-5-6.64l83.84-290.68a4.07,4.07,0,0,0,.13-1.55h0a6.54,6.54,0,0,0-6-5.85h0c-.69,0-1.38-.08-2.08-.08H427.14c-4.75,0-7.11,1.73-7.11,5.17s2.36,5.16,7.11,5.16H499.7a5.21,5.21,0,0,1,5,6.67L420,557.05C418.74,561.47,420.92,563.69,426.5,563.77Z"/></svg>