<svg id="Слой_1" data-name="Слой 1" xmlns="http://www.w3.org/2000/svg" viewBox="0 0 800 800"><defs><style>.cls-1{fill:#11052c;}.cls-2{font-size:589.05px;fill:#ffe459;font-family:NimbusSanL-Bol, Nimbus Sans L;}</style></defs><path class="cls-1" d="M251.45-189.35h297.1A35,35,0,0,1,566-184.67L823.32-36.12a34.92,34.92,0,0,1,12.8,12.8L984.67,234a35,35,0,0,1,4.68,17.48v297.1A35,35,0,0,1,984.67,566L836.12,823.32a34.92,34.92,0,0,1-12.8,12.8L566,984.67a35,35,0,0,1-17.48,4.68H251.45A35,35,0,0,1,234,984.67L-23.32,836.12a34.92,34.92,0,0,1-12.8-12.8L-184.67,566a35,35,0,0,1-4.68-17.48V251.45A35,35,0,0,1-184.67,234L-36.12-23.32a34.92,34.92,0,0,1,12.8-12.8L234-184.67A35,35,0,0,1,251.45-189.35Z"/><text class="cls-2" transform="translate(23.6 615.69)">SZ</text></svg>