<svg id="Слой_1" data-name="Слой 1" xmlns="http://www.w3.org/2000/svg" viewBox="0 0 800 800"><defs><style>.cls-1{fill:#ffe459;}.cls-2{fill:#11052c;}.cls-3{fill:#f43b86;}</style></defs><path class="cls-1" d="M303,3H497a35,35,0,0,1,17.48,4.68l168,97a34.92,34.92,0,0,1,12.8,12.8l97,168A35,35,0,0,1,797,303V497a35,35,0,0,1-4.68,17.48l-97,168a34.92,34.92,0,0,1-12.8,12.8l-168,97A35,35,0,0,1,497,797H303a35,35,0,0,1-17.48-4.68l-168-97a34.92,34.92,0,0,1-12.8-12.8l-97-168A35,35,0,0,1,3,497V303a35,35,0,0,1,4.68-17.48l97-168a34.92,34.92,0,0,1,12.8-12.8l168-97A35,35,0,0,1,303,3Z"/><path class="cls-2" d="M309.14,26H490.86a35,35,0,0,1,17.48,4.68L665.71,121.5a34.87,34.87,0,0,1,12.79,12.79l90.87,157.37a35,35,0,0,1,4.68,17.48V490.86a35,35,0,0,1-4.68,17.48L678.5,665.71a34.87,34.87,0,0,1-12.79,12.79L508.34,769.37a35,35,0,0,1-17.48,4.68H309.14a35,35,0,0,1-17.48-4.68L134.29,678.5a34.87,34.87,0,0,1-12.79-12.79L30.63,508.34A35,35,0,0,1,26,490.86V309.14a35,35,0,0,1,4.68-17.48L121.5,134.29a34.87,34.87,0,0,1,12.79-12.79L291.66,30.63A35,35,0,0,1,309.14,26Z"/><path class="cls-3" d="M273.41,191.63q23.94,0,42.77,8.75t30.47,23.54l21.2,16.41a40.54,40.54,0,0,1,9.93,12.58,108,108,0,0,1,7.53,17.52A139.69,139.69,0,0,1,390.1,289a92.26,92.26,0,0,1,1.72,16.41v50.34q0,13.14-17.24,13.13-8.28,0-11.72-2.73-3.45,2.73-12.41,2.73-8.26,0-13.09-2.73a6.18,6.18,0,0,1-3.45,1.64,74.46,74.46,0,0,1,12.42,12.54l21.36,16.37a61.72,61.72,0,0,1,17.92,22.64,64.68,64.68,0,0,1,6.21,27.54v95.46a57.56,57.56,0,0,1-6.17,26.72,64.43,64.43,0,0,1-17.45,21A82.9,82.9,0,0,1,341.51,604a110.93,110.93,0,0,1-33.88,4.91H274.09q-17.79,0-30.46-5.18a99.56,99.56,0,0,1-24.29-14.45l-19.86-15.82a77.32,77.32,0,0,1-29.77-24,56.35,56.35,0,0,1-11.29-34.37V461.64q0-14.73,18.43-14.73,7.5,0,12.28,2.73a28.66,28.66,0,0,1,13-2.73q7.5,0,12.28,2.73a28.66,28.66,0,0,1,13-2.73q15.69,0,18.42,9.27l24.57,22.91c0,.37.45.92,1.37,1.64V470.09q0-4.08-.35-7.91t-.34-7.91V443.64q-16.38-.54-28.66-5.74A97.92,97.92,0,0,1,219.16,424l-20.48-16.4q-18.42-9.3-29.34-24.6a57.86,57.86,0,0,1-10.92-34.44V260a55.13,55.13,0,0,1,6.85-26.78,71.52,71.52,0,0,1,18.47-21.87,88,88,0,0,1,27-14.48,103.25,103.25,0,0,1,33.19-5.2Zm-29.69,9.82a85.48,85.48,0,0,0-28.32,4.64,82.86,82.86,0,0,0-23.54,12.54,58.05,58.05,0,0,0-16,18.82,48.15,48.15,0,0,0-5.8,22.91v88.37a49.13,49.13,0,0,0,5.8,23.45,60.68,60.68,0,0,0,16,19.09,78.55,78.55,0,0,0,23.54,12.82,85.48,85.48,0,0,0,28.32,4.64h29.35q10.23,0,10.24,7.64v98.72q0,8.19-10.24,8.19H243.72q-8.86,0-8.87-8.19V461.64c0-3.63-2.39-5.46-7.14-5.46-4.34,0-6.51,1.83-6.51,5.46v53.45q0,18.55,23,18.55h29.09q25,0,25-18.55V416.37q0-19.1-25.1-19.1H244.05q-25.11,0-42.4-13.95t-17.3-34.74V260q0-20.23,17.32-34.19t42.46-14h29.22q25.81,0,42.79,13.69t17,34.52v71.78c0,1.47,2.38,2.19,7.15,2.19,5.24,0,7.87-.72,7.87-2.18V260.36a47.77,47.77,0,0,0-5.87-22.91,60.28,60.28,0,0,0-15.86-18.82,78.39,78.39,0,0,0-23.79-12.54,92.27,92.27,0,0,0-29.55-4.64Zm.06,156q-8.92,0-8.93-8.72V260.36q0-7.63,8.87-7.63h29.35q10.23,0,10.24,7.63v71.46c0,1.46,2.49,2.18,7.5,2.18s7.51-.72,7.51-2.18V260.36q0-19.08-25-19.09H244.2q-23,0-23,19.09v88.37q0,19.09,23.07,19.09h29.16q25.77,0,42.73,13.91t17,34.64v98.72q0,19.65-17,33.82T273.35,563.1H244.13q-25.14,0-42.46-13.92t-17.32-34.09V461.64c0-3.63-2.28-5.46-6.82-5.46s-6.83,1.83-6.83,5.46v53.45a47.62,47.62,0,0,0,5.8,23.19,59,59,0,0,0,16,18.54,82.45,82.45,0,0,0,23.55,12.55A85.43,85.43,0,0,0,244.41,574h29.34q32.76,0,53.57-16.63t20.82-42.28V416.37a48,48,0,0,0-5.84-22.92,60.07,60.07,0,0,0-15.8-18.81,77.79,77.79,0,0,0-23.68-12.55,92,92,0,0,0-29.52-4.64Zm-41.36,98.73q-7.15,0-7.15,5.42v53.17q0,39.06,48.87,39.05h29.2q49.55,0,49.55-39.15V416.25q0-38.61-49.82-38.61H243.72q-34.8,0-34.8-28.91V260.36q0-28.35,34.57-28.36h29.14q35.24,0,35.24,28.36v71.46c0,1.46,2.63,2.18,7.87,2.18,4.76,0,7.15-.72,7.15-2.18V260.36q0-39.27-49.55-39.27h-29.2q-48.88,0-48.87,39.27v88.37q0,39.27,48.55,39.27h29q35.07,0,35.06,28.37v98.72q0,28.38-35.24,28.37H243.49q-34.58,0-34.57-28.37V461.64C208.92,458,206.75,456.18,202.42,456.18Z"/><path class="cls-3" d="M409.55,573.72v-5.93a29,29,0,0,1,1.16-8.13l79.37-273.12h-27.3q-8.88,0-13-3.27l-28.66-22.91q-11.61-2.73-11.6-14.18a14.17,14.17,0,0,1,3.41-9.82A16.26,16.26,0,0,1,409.55,226a14.17,14.17,0,0,1,3.41-9.82,16.29,16.29,0,0,1-3.41-10.37q0-14.72,19.11-14.72H599.32a21.2,21.2,0,0,1,14.18,5.44L635.09,216a15.7,15.7,0,0,1,5.09,9.95l.72,6.6h0a19.88,19.88,0,0,1-.55,8.61L561.73,512.91h29.35q12.51,0,16.49,6.44a20.38,20.38,0,0,0,4.46,5.39l25.45,20.35q4.11,3.28,4.1,9.82,0,7.1-4.1,10.37,4.11,3.27,4.1,9.82,0,7.08-4.1,10.36,4.11,3.27,4.1,9.82,0,13.08-16.38,13.09l-163.1-.55-9.23-.3a23.89,23.89,0,0,1-13-4.38L416,586.22A15.32,15.32,0,0,1,409.55,573.72Zm85.8-41.07h0a23.64,23.64,0,0,0,4.52.44h91.21q6.81,0,6.82-5.45c0-3.63-2.28-5.46-6.82-5.46H516.26a6.35,6.35,0,0,1-6.11-8.11l87.15-304a8.38,8.38,0,0,0,.11-4.22h0a8,8,0,0,0-2.11-3.78h0a5.26,5.26,0,0,0-3.71-1.54l-162.93-.19c-5,0-7.51,1.83-7.51,5.45s2.5,5.46,7.51,5.46h146a5.15,5.15,0,0,1,5,6.58l-89,307.29a5.79,5.79,0,0,0,.22,3.83h0A6.18,6.18,0,0,0,495.35,532.65ZM459.21,549a12.13,12.13,0,0,0,8.71,3.7H591.08q6.81,0,6.82-5.18c0-3.45-2.28-5.18-6.82-5.18H480.16A5.37,5.37,0,0,1,475,535.5l88.34-306.33a8,8,0,0,0,.26-3.12h0a5.87,5.87,0,0,0-4.89-5.12h0a30.93,30.93,0,0,0-4.9-.39H428.66q-7.52,0-7.51,5.45t7.51,5.44H541.18a4.67,4.67,0,0,1,4.48,6L457.27,541.15a8.11,8.11,0,0,0,1.94,7.88ZM428,572.91l163.11.55q6.81,0,6.82-5.45t-6.82-5.46H445.5a5.49,5.49,0,0,1-5.27-7l88.52-306.92a4.29,4.29,0,0,0,.14-1.63h0a6.92,6.92,0,0,0-6.33-6.18h0q-1.09-.09-2.19-.09H428.66c-5,0-7.51,1.83-7.51,5.46s2.5,5.45,7.51,5.45h76.61a5.51,5.51,0,0,1,5.28,7l-89.4,307.15C419.78,570.49,422.09,572.83,428,572.91Z"/></svg>