<svg id="Слой_1" data-name="Слой 1" xmlns="http://www.w3.org/2000/svg" viewBox="0 0 800 800"><defs><style>.cls-1{fill:#45526c;}.cls-2{fill:#f8f5f1;}</style></defs><path class="cls-1" d="M349.08,175H450.92a34.92,34.92,0,0,1,17.48,4.68l88.2,50.93a34.87,34.87,0,0,1,12.79,12.79l50.93,88.2A34.92,34.92,0,0,1,625,349.08V450.92a34.92,34.92,0,0,1-4.68,17.48l-50.93,88.2a34.87,34.87,0,0,1-12.79,12.79l-88.2,50.93A34.92,34.92,0,0,1,450.92,625H349.08a34.92,34.92,0,0,1-17.48-4.68l-88.2-50.93a34.87,34.87,0,0,1-12.79-12.79l-50.93-88.2A34.92,34.92,0,0,1,175,450.92V349.08a34.92,34.92,0,0,1,4.68-17.48l50.93-88.2a34.87,34.87,0,0,1,12.79-12.79l88.2-50.93A34.92,34.92,0,0,1,349.08,175Z"/><path class="cls-2" d="M328.26,281.91a56.86,56.86,0,0,1,24.24,5,46.61,46.61,0,0,1,17.26,13.33l12,9.31a22.94,22.94,0,0,1,5.63,7.13,60.86,60.86,0,0,1,4.26,9.92,78.67,78.67,0,0,1,2.72,10.55,52.78,52.78,0,0,1,1,9.3v28.53q0,7.44-9.77,7.44c-3.13,0-5.34-.51-6.64-1.55-1.3,1-3.65,1.55-7,1.55a15,15,0,0,1-7.42-1.55,3.49,3.49,0,0,1-1.95.93,42.63,42.63,0,0,1,7,7.11l12.11,9.28A34.89,34.89,0,0,1,391.84,411a36.6,36.6,0,0,1,3.52,15.61v54.1a32.74,32.74,0,0,1-3.49,15.14,36.41,36.41,0,0,1-9.9,11.91,46.89,46.89,0,0,1-15.12,7.88,63.12,63.12,0,0,1-19.2,2.78h-19a45.47,45.47,0,0,1-17.26-2.94,56.26,56.26,0,0,1-13.77-8.19l-11.25-9a43.81,43.81,0,0,1-16.88-13.6,32,32,0,0,1-6.4-19.48v-30.3q0-8.34,10.45-8.34a14,14,0,0,1,7,1.54,16.26,16.26,0,0,1,7.35-1.54,14,14,0,0,1,7,1.54,16.26,16.26,0,0,1,7.35-1.54q8.89,0,10.44,5.25l13.93,13c0,.2.25.51.77.92v-6c0-1.55-.07-3-.19-4.49s-.2-2.93-.2-4.48v-6a45.3,45.3,0,0,1-16.24-3.25,55.64,55.64,0,0,1-13.15-7.9l-11.61-9.29a44.77,44.77,0,0,1-16.63-13.94,32.79,32.79,0,0,1-6.19-19.52v-50.2A31.33,31.33,0,0,1,267,305.46a40.54,40.54,0,0,1,10.48-12.4,49.89,49.89,0,0,1,15.32-8.21,58.57,58.57,0,0,1,18.81-2.94Zm-16.83,5.56a48.5,48.5,0,0,0-16.05,2.63A46.6,46.6,0,0,0,282,297.21,32.81,32.81,0,0,0,273,307.88a27.18,27.18,0,0,0-3.29,13v50.08A27.78,27.78,0,0,0,273,384.23,34.27,34.27,0,0,0,282,395.05a44.39,44.39,0,0,0,13.34,7.27A48.5,48.5,0,0,0,311.43,405h16.63q5.81,0,5.8,4.33v56q0,4.63-5.8,4.64H311.43q-5,0-5-4.64v-30.3c0-2.05-1.35-3.09-4-3.09-2.46,0-3.68,1-3.68,3.09v30.3q0,10.51,13,10.51h16.49q14.18,0,14.18-10.51v-56q0-10.83-14.22-10.83H311.61q-14.22,0-24-7.9t-9.8-19.69V320.63q0-11.46,9.82-19.38t24.06-7.9h16.56q14.63,0,24.25,7.76t9.63,19.56v40.68c0,.83,1.35,1.24,4,1.24,3,0,4.46-.41,4.46-1.23v-40.5a27,27,0,0,0-3.33-13,34,34,0,0,0-9-10.67,44.17,44.17,0,0,0-13.48-7.11,52.35,52.35,0,0,0-16.75-2.63Zm0,88.42q-5.06,0-5.06-4.95V320.86c0-2.88,1.68-4.33,5-4.33h16.63c3.87,0,5.8,1.45,5.8,4.33v40.5q0,1.23,4.26,1.23c2.83,0,4.25-.41,4.25-1.23v-40.5q0-10.82-14.18-10.82H311.7q-13,0-13,10.82v50.08q0,10.83,13.07,10.82h16.53q14.6,0,24.21,7.88t9.62,19.64v56q0,11.13-9.63,19.17t-24.25,8H311.66q-14.25,0-24.06-7.88t-9.82-19.32v-30.3c0-2.05-1.29-3.09-3.87-3.09s-3.86,1-3.86,3.09v30.3a27,27,0,0,0,3.28,13.14,33.46,33.46,0,0,0,9.09,10.51A46.79,46.79,0,0,0,295.77,496a48.42,48.42,0,0,0,16.05,2.63h16.63q18.57,0,30.36-9.43t11.8-24v-56a27.24,27.24,0,0,0-3.31-13,34.39,34.39,0,0,0-8.95-10.67,44.09,44.09,0,0,0-13.43-7.1,51.94,51.94,0,0,0-16.72-2.63ZM288,431.84c-2.7,0-4,1-4,3.07v30.14q0,22.13,27.7,22.13h16.54q28.1,0,28.09-22.19V409.21q0-21.88-28.24-21.89H311.43q-19.73,0-19.72-16.38V320.86q0-16.07,19.59-16.08h16.51q20,0,20,16.08v40.5c0,.82,1.48,1.23,4.46,1.23,2.69,0,4.05-.41,4.05-1.23v-40.5q0-22.26-28.09-22.26H311.67q-27.71,0-27.7,22.26v50.08q0,22.26,27.52,22.26h16.43q19.86,0,19.87,16.08v56q0,16.08-20,16.07H311.3q-19.6,0-19.59-16.07v-30.3C291.71,432.88,290.47,431.84,288,431.84Z"/><path class="cls-2" d="M405.41,498.46v-3.37a16.24,16.24,0,0,1,.66-4.6l45-154.79H435.58q-5,0-7.35-1.86l-16.24-13q-6.58-1.55-6.58-8a8,8,0,0,1,1.94-5.56,9.21,9.21,0,0,1-1.94-5.88,8,8,0,0,1,1.94-5.56,9.2,9.2,0,0,1-1.94-5.87q0-8.35,10.83-8.35H513a12,12,0,0,1,8,3.08l12.24,11a8.88,8.88,0,0,1,2.88,5.64l.41,3.74h0a11.33,11.33,0,0,1-.31,4.88L491.66,464h16.63q7.09,0,9.35,3.65a11.49,11.49,0,0,0,2.53,3.06l14.42,11.53a6.7,6.7,0,0,1,2.33,5.57c0,2.68-.78,4.63-2.33,5.87a6.7,6.7,0,0,1,2.33,5.57q0,4-2.33,5.87a6.69,6.69,0,0,1,2.33,5.56q0,7.43-9.29,7.42l-92.44-.31-5.23-.17a13.53,13.53,0,0,1-7.36-2.48l-13.52-9.59A8.69,8.69,0,0,1,405.41,498.46ZM454,475.18h0a12.92,12.92,0,0,0,2.56.25h51.69q3.87,0,3.87-3.09t-3.87-3.09h-42.4a3.61,3.61,0,0,1-3.46-4.6l49.39-172.28a4.72,4.72,0,0,0,.06-2.39h0a4.42,4.42,0,0,0-1.19-2.14h0a3,3,0,0,0-2.11-.88l-92.34-.11c-2.84,0-4.25,1-4.25,3.1s1.41,3.09,4.25,3.09H499a2.92,2.92,0,0,1,2.8,3.73L451.37,470.92a3.3,3.3,0,0,0,.12,2.17h0A3.52,3.52,0,0,0,454,475.18Zm-20.48,9.28a6.85,6.85,0,0,0,4.94,2.1h69.79q3.87,0,3.87-2.94t-3.87-2.93H445.43a3,3,0,0,1-2.93-3.89l50.07-173.62a4.4,4.4,0,0,0,.15-1.77h0a3.32,3.32,0,0,0-2.77-2.9h0a18.5,18.5,0,0,0-2.78-.22H416.24c-2.84,0-4.25,1-4.25,3.09s1.41,3.09,4.25,3.09H480a2.64,2.64,0,0,1,2.54,3.38L432.46,480a4.58,4.58,0,0,0,1.1,4.46ZM415.85,498l92.44.31q3.87,0,3.87-3.09c0-2.06-1.29-3.1-3.87-3.1h-82.5a3.11,3.11,0,0,1-3-4L473,314.2a2.59,2.59,0,0,0,.08-.92h0a3.92,3.92,0,0,0-3.59-3.5h0c-.41,0-.82,0-1.24,0h-52c-2.84,0-4.25,1-4.25,3.09s1.41,3.09,4.25,3.09h43.42a3.12,3.12,0,0,1,3,4L412,494C411.21,496.62,412.52,498,415.85,498Z"/></svg>